<?xml version="1.0" encoding="UTF-8" standalone="no"?> <svg xmlns="http://www.w3.org/2000/svg" viewBox="0 0 200 200"><path fill="#FEA633" d="M33.4,-62.9C39.6,-54.3,38.5,-37.9,41.4,-26.1C44.4,-14.4,51.5,-7.2,48.9,-1.5C46.3,4.2,34,8.4,32.6,22.8C31.2,37.2,40.6,61.9,36.9,65.7C33.3,69.5,16.7,52.4,2.8,47.6C-11.1,42.8,-22.2,50.3,-28.6,48C-34.9,45.8,-36.5,33.9,-35.4,24.3C-34.3,14.6,-30.6,7.3,-27.9,1.5C-25.2,-4.2,-23.6,-8.5,-26.2,-20.7C-28.8,-32.9,-35.6,-53.1,-31.9,-63.2C-28.2,-73.3,-14.1,-73.4,-0.3,-72.9C13.6,-72.5,27.2,-71.6,33.4,-62.9Z" transform="translate(100 100)"></path></svg> 