<?xml version="1.0" encoding="UTF-8" standalone="no"?> <svg xmlns="http://www.w3.org/2000/svg" viewBox="0 0 200 200"><path fill="#000000" d="M43.6,-57.3C56.1,-51,65.4,-37.6,70.4,-22.8C75.4,-7.9,76.1,8.5,70.1,21.5C64.2,34.6,51.7,44.2,38.9,56.6C26.1,69,13.1,84.2,-2.8,88.1C-18.7,91.9,-37.4,84.6,-50,72.1C-62.7,59.7,-69.4,42.2,-72.9,25.2C-76.4,8.1,-76.7,-8.5,-70.4,-21.2C-64,-34,-50.9,-43,-38,-49.3C-25.2,-55.5,-12.6,-59,1.5,-61C15.6,-63.1,31.1,-63.7,43.6,-57.3Z" transform="translate(100 100)"></path></svg> 