<?xml version="1.0" encoding="UTF-8" standalone="no"?> <svg xmlns="http://www.w3.org/2000/svg" viewBox="0 0 200 200"><path fill="#FEA633" d="M18.6,-38.8C27,-27.3,38.7,-28.2,51.2,-23.8C63.6,-19.4,76.8,-9.7,74.4,-1.4C72.1,7,54.1,13.9,45.9,25.7C37.7,37.4,39.2,54,33.2,60.7C27.1,67.4,13.6,64.3,2.4,60.1C-8.8,56,-17.5,50.8,-26.2,45.5C-34.8,40.3,-43.2,35.1,-50.8,27.5C-58.3,19.9,-64.9,10,-60.6,2.4C-56.4,-5.1,-41.4,-10.2,-35.7,-20.9C-30,-31.7,-33.7,-48.2,-29.3,-62C-24.9,-75.8,-12.5,-87,-3.7,-80.6C5.1,-74.2,10.2,-50.3,18.6,-38.8Z" transform="translate(100 100)"></path></svg> 